<svg xmlns="http://www.w3.org/2000/svg" viewBox="-26.03 -99.87 727.95 148.62">
<g fill="#000000">
<path transform="translate(0.00 0.00) scale(0.048828 -0.048828)" d="M626 1118V939H403V302Q403 235 431.5 203.5Q460 172 525 172Q543 172 570.5 176.0Q598 180 618 184L657 8Q622 -4 581.5 -9.5Q541 -15 503 -15Q351 -15 267.0 63.5Q183 142 183 284V939H20V1118H183V1384H403V1118Z"/>
<path transform="translate(36.63 0.00) scale(0.048828 -0.048828)" d="M368 662V0H148V1490H366V917Q419 1028 504.0 1080.0Q589 1132 704 1132Q875 1132 980.0 1024.5Q1085 917 1085 710V0H864V683Q864 804 801.0 872.0Q738 940 628 940Q516 940 442.0 867.5Q368 795 368 662Z"/>
<path transform="translate(99.29 0.00) scale(0.048828 -0.048828)" d="M618 -23Q461 -23 343.5 49.0Q226 121 161.0 250.5Q96 380 96 553Q96 727 161.0 857.5Q226 988 343.5 1060.0Q461 1132 618 1132Q776 1132 893.5 1060.0Q1011 988 1076.0 857.5Q1141 727 1141 553Q1141 380 1076.0 250.5Q1011 121 893.5 49.0Q776 -23 618 -23ZM618 163Q720 163 786.5 216.5Q853 270 885.5 358.5Q918 447 918 553Q918 660 885.5 749.5Q853 839 786.5 892.5Q720 946 618 946Q517 946 451.0 892.5Q385 839 352.5 749.5Q320 660 320 553Q320 447 352.5 358.5Q385 270 451.0 216.5Q517 163 618 163Z"/>
<path transform="translate(162.19 0.00) scale(0.048828 -0.048828)" d="M529 -14Q358 -14 253.0 93.5Q148 201 148 408V1118H368V435Q368 314 431.5 246.0Q495 178 604 178Q716 178 790.0 250.5Q864 323 864 456V1118H1085V0H874L873 217Q820 95 732.5 40.5Q645 -14 529 -14Z"/>
<path transform="translate(224.84 0.00) scale(0.048828 -0.048828)" d="M616 -442Q422 -442 305.0 -371.0Q188 -300 141 -199L325 -112Q345 -144 378.5 -179.5Q412 -215 468.5 -240.0Q525 -265 615 -265Q742 -265 822.0 -204.5Q902 -144 902 -15V203H883Q863 166 827.5 123.0Q792 80 728.5 48.5Q665 17 563 17Q431 17 325.5 79.0Q220 141 158.0 262.5Q96 384 96 563Q96 741 157.5 868.5Q219 996 325.0 1064.0Q431 1132 566 1132Q669 1132 733.5 1097.5Q798 1063 834.5 1017.0Q871 971 890 936H906V1118H1121V-16Q1121 -163 1054.0 -257.0Q987 -351 873.0 -396.5Q759 -442 616 -442ZM614 200Q754 200 828.5 297.0Q903 394 903 566Q903 734 829.5 839.5Q756 945 614 945Q517 945 451.5 894.5Q386 844 353.5 758.5Q321 673 321 566Q321 402 395.5 301.0Q470 200 614 200Z"/>
<path transform="translate(289.31 0.00) scale(0.048828 -0.048828)" d="M368 662V0H148V1490H366V917Q419 1028 504.0 1080.0Q589 1132 704 1132Q875 1132 980.0 1024.5Q1085 917 1085 710V0H864V683Q864 804 801.0 872.0Q738 940 628 940Q516 940 442.0 867.5Q368 795 368 662Z"/>
<path transform="translate(351.96 0.00) scale(0.048828 -0.048828)" d="M626 1118V939H403V302Q403 235 431.5 203.5Q460 172 525 172Q543 172 570.5 176.0Q598 180 618 184L657 8Q622 -4 581.5 -9.5Q541 -15 503 -15Q351 -15 267.0 63.5Q183 142 183 284V939H20V1118H183V1384H403V1118Z"/>
<path transform="translate(388.59 0.00) scale(0.048828 -0.048828)" d="M703 -22Q601 -22 537.0 12.5Q473 47 436.5 93.0Q400 139 380 175H362V0H148V1490H368V936H380Q399 970 434.5 1016.5Q470 1063 534.0 1097.5Q598 1132 703 1132Q837 1132 942.5 1064.0Q1048 996 1109.0 867.0Q1170 738 1170 556Q1170 376 1110.0 246.0Q1050 116 944.5 47.0Q839 -22 703 -22ZM654 165Q750 165 814.5 217.0Q879 269 912.0 358.0Q945 447 945 558Q945 668 912.5 755.5Q880 843 815.5 894.0Q751 945 654 945Q512 945 438.0 838.5Q364 732 364 558Q364 383 439.0 274.0Q514 165 654 165Z"/>
<path transform="translate(452.91 0.00) scale(0.048828 -0.048828)" d="M618 -23Q461 -23 343.5 49.0Q226 121 161.0 250.5Q96 380 96 553Q96 727 161.0 857.5Q226 988 343.5 1060.0Q461 1132 618 1132Q776 1132 893.5 1060.0Q1011 988 1076.0 857.5Q1141 727 1141 553Q1141 380 1076.0 250.5Q1011 121 893.5 49.0Q776 -23 618 -23ZM618 163Q720 163 786.5 216.5Q853 270 885.5 358.5Q918 447 918 553Q918 660 885.5 749.5Q853 839 786.5 892.5Q720 946 618 946Q517 946 451.0 892.5Q385 839 352.5 749.5Q320 660 320 553Q320 447 352.5 358.5Q385 270 451.0 216.5Q517 163 618 163Z"/>
<path transform="translate(515.81 0.00) scale(0.048828 -0.048828)" d="M148 0V1118H361V938H373Q403 1029 480.5 1081.5Q558 1134 656 1134Q677 1134 704.5 1132.0Q732 1130 749 1128V918Q737 921 703.0 925.5Q669 930 634 930Q519 930 443.5 859.5Q368 789 368 679V0Z"/>
<path transform="translate(558.25 0.00) scale(0.048828 -0.048828)" d="M368 662V0H148V1118H358L359 903Q411 1021 498.5 1076.5Q586 1132 704 1132Q875 1132 979.5 1024.5Q1084 917 1084 710V0H864V683Q864 804 801.0 872.0Q738 940 628 940Q516 940 442.0 867.5Q368 795 368 662Z"/>
<path transform="translate(620.91 0.00) scale(0.048828 -0.048828)" d="M630 -23Q465 -23 345.0 48.0Q225 119 160.5 248.0Q96 377 96 551Q96 723 159.5 854.0Q223 985 339.0 1058.5Q455 1132 611 1132Q738 1132 852.5 1075.5Q967 1019 1038.5 895.5Q1110 772 1110 570V492H317Q323 330 409.0 244.5Q495 159 632 159Q724 159 790.5 199.0Q857 239 886 317L1093 268Q1053 137 931.0 57.0Q809 -23 630 -23ZM318 656H892Q880 788 809.5 869.0Q739 950 612 950Q480 950 403.5 863.5Q327 777 318 656Z" fill="#000000"/>
</g>
</svg>