<svg xmlns="http://www.w3.org/2000/svg" viewBox="0 0 512 512">
<path fill="#000000" d="M 69.57 89.44 C 70.92 90.26 80.55 94.04 91.91 98.66 C 103.26 103.28 115.37 108.20 118.80 109.60 C 149.01 121.85 172.26 131.55 176.22 133.55 C 181.20 136.07 187.72 140.63 191.59 144.31 C 200.33 152.64 205.14 164.00 205.19 176.41 C 205.22 184.14 204.19 189.89 200.05 205.09 C 193.51 229.12 191.95 239.31 193.13 250.31 C 194.75 265.49 200.47 278.71 210.38 290.15 C 222.87 304.60 232.56 312.03 270.23 336.00 C 310.93 361.90 331.92 378.17 354.42 401.21 C 365.24 412.30 373.89 422.38 383.45 435.05 C 390.08 443.85 400.24 458.95 400.32 460.14 A 250.00 250.00 0 0 1 69.57 89.44 Z M 461.13 398.90 C 461.25 398.98 456.27 393.85 450.21 387.62 C 421.66 358.22 391.54 336.94 341.33 310.71 C 311.21 294.98 305.14 291.72 297.83 287.38 C 278.90 276.16 266.13 263.50 258.15 248.06 C 253.46 239.00 251.24 232.87 249.27 223.61 C 247.78 216.57 247.69 215.33 247.90 203.90 C 248.42 174.95 248.23 167.69 246.84 162.07 C 242.17 143.26 230.35 129.52 210.86 120.29 C 205.03 117.53 198.29 115.26 167.59 105.71 C 157.94 102.71 144.68 98.57 138.14 96.50 C 131.59 94.44 117.00 89.90 105.71 86.41 C 94.42 82.93 84.31 79.80 83.25 79.47 C 82.19 79.13 81.32 78.65 80.69 77.77 A 250.00 250.00 0 0 1 461.13 398.90 Z"/>
</svg>